<?xml version="1.0" encoding="UTF-8"?>
<svg id="Layer_1" xmlns="http://www.w3.org/2000/svg" version="1.1" viewBox="0 0 720 720">
  <!-- Generator: Adobe Illustrator 29.1.0, SVG Export Plug-In . SVG Version: 2.1.0 Build 142)  -->
  <defs>
    <style>
      .st0 {
        fill: none;
        stroke: #f68b28;
        stroke-miterlimit: 10;
        stroke-width: 3px;
      }

      .st1 {
        fill: #011e41;
      }

      .st2 {
        fill: #f68b28;
      }
    </style>
  </defs>
  <path class="st2" d="M373.55,390.45c0,3.56-.3,7-.91,10.33-.61,3.33-1.84,6.32-3.69,8.97-1.86,2.65-4.54,4.77-8.06,6.36-3.52,1.59-8.19,2.38-14.02,2.38-4.31,0-7.99-.66-11.01-1.99-3.03-1.32-5.53-3.14-7.49-5.45-1.97-2.31-3.41-5.05-4.31-8.23-.91-3.18-1.36-6.62-1.36-10.33v-4.31h14.19v4.2c0,4.62.78,8.19,2.33,10.73,1.55,2.54,4.48,3.8,8.8,3.8,2.27,0,4.14-.34,5.62-1.02,1.48-.68,2.65-1.68,3.52-3.01.87-1.32,1.46-2.97,1.76-4.94.3-1.97.45-4.2.45-6.7v-55.74h14.19v54.94Z"/>
  <path class="st2" d="M501.94,416.56h-9.08l-2.16-9.54c-3.78,4.31-7.57,7.3-11.35,8.97-3.78,1.66-8.14,2.5-13.05,2.5-6.06,0-11.48-1.12-16.29-3.35-4.81-2.23-8.87-5.28-12.2-9.14-3.33-3.86-5.89-8.36-7.66-13.51-1.78-5.15-2.67-10.63-2.67-16.46s.89-11.2,2.67-16.35c1.78-5.15,4.33-9.65,7.66-13.51,3.33-3.86,7.4-6.92,12.2-9.2,4.81-2.27,10.23-3.41,16.29-3.41,4.39,0,8.57.59,12.54,1.76,3.97,1.17,7.51,2.91,10.61,5.22,3.1,2.31,5.68,5.2,7.72,8.68,2.04,3.48,3.33,7.49,3.86,12.03h-13.85c-.38-2.65-1.19-4.98-2.44-6.98-1.25-2-2.82-3.69-4.71-5.05-1.89-1.36-4.01-2.38-6.36-3.06-2.35-.68-4.81-1.02-7.38-1.02-4.31,0-8.04.87-11.18,2.61-3.14,1.74-5.7,4.07-7.66,6.98-1.97,2.91-3.43,6.23-4.37,9.93-.95,3.71-1.42,7.49-1.42,11.35s.47,7.64,1.42,11.35c.95,3.71,2.4,7.02,4.37,9.93,1.97,2.91,4.52,5.24,7.66,6.98,3.14,1.74,6.87,2.61,11.18,2.61,3.63.08,6.85-.4,9.65-1.42,2.8-1.02,5.17-2.5,7.1-4.43s3.39-4.29,4.37-7.1c.98-2.8,1.51-5.9,1.59-9.31h-21.57v-10.78h34.51v42.68Z"/>
  <path class="st1" d="M318.06,427.14h-23.51c.03-2.85.72-5.34,2.07-7.48,1.34-2.13,3.18-3.98,5.51-5.56,1.11-.82,2.28-1.61,3.49-2.39,1.21-.77,2.33-1.6,3.34-2.48,1.02-.89,1.85-1.84,2.51-2.88.66-1.03,1-2.22,1.03-3.57,0-.62-.07-1.29-.22-1.99-.15-.7-.44-1.36-.86-1.97-.43-.61-1.02-1.11-1.77-1.52-.75-.41-1.74-.61-2.95-.61-1.12,0-2.04.22-2.78.66-.74.44-1.33,1.05-1.77,1.82-.44.77-.77,1.68-.98,2.73-.21,1.05-.34,2.18-.37,3.39h-5.61c0-1.9.25-3.66.76-5.29.51-1.62,1.27-3.02,2.29-4.21,1.02-1.18,2.25-2.11,3.71-2.78,1.46-.67,3.16-1.01,5.09-1.01,2.1,0,3.85.34,5.26,1.03,1.41.69,2.55,1.56,3.42,2.61.87,1.05,1.48,2.19,1.84,3.42.36,1.23.54,2.4.54,3.52,0,1.38-.21,2.62-.64,3.74-.43,1.12-1,2.14-1.72,3.07-.72.93-1.54,1.8-2.46,2.58-.92.79-1.87,1.52-2.85,2.21-.98.69-1.97,1.34-2.95,1.97-.98.62-1.89,1.25-2.73,1.87-.84.62-1.57,1.27-2.19,1.94-.62.67-1.05,1.39-1.28,2.14h16.77v5.02Z"/>
  <path class="st1" d="M378.74,398.41c1.18,0,2.33-.1,3.44-.3,1.11-.2,2.12-.52,3.03-.98.9-.46,1.67-1.05,2.31-1.77.64-.72,1.06-1.61,1.25-2.66h4.57v34.43h-6.15v-24.3h-8.46v-4.43Z"/>
  <path class="st1" d="M401.36,392.71h17.81v5.02h-13.63l-1.77,8.76.1.1c.75-.85,1.71-1.5,2.88-1.94,1.16-.44,2.32-.66,3.47-.66,1.7,0,3.23.29,4.57.86,1.34.57,2.48,1.38,3.39,2.41.92,1.03,1.61,2.25,2.09,3.66.48,1.41.71,2.93.71,4.57,0,1.38-.22,2.8-.66,4.25-.44,1.46-1.15,2.79-2.11,3.98-.97,1.2-2.21,2.18-3.71,2.95-1.51.77-3.31,1.16-5.41,1.16-1.67,0-3.22-.22-4.65-.66-1.43-.44-2.68-1.11-3.76-1.99s-1.94-1.98-2.58-3.27c-.64-1.3-.99-2.81-1.06-4.55h5.61c.16,1.87.8,3.3,1.92,4.3,1.11,1,2.59,1.5,4.43,1.5,1.18,0,2.18-.2,3-.59.82-.39,1.48-.93,1.99-1.62.51-.69.87-1.49,1.08-2.41.21-.92.32-1.9.32-2.95,0-.95-.13-1.86-.39-2.73-.26-.87-.66-1.63-1.18-2.29-.52-.66-1.21-1.18-2.04-1.57-.84-.39-1.81-.59-2.93-.59-1.18,0-2.29.22-3.32.66-1.03.44-1.78,1.27-2.24,2.48h-5.61l3.69-18.84Z"/>
  <path class="st1" d="M531.42,427.14h-23.51c.03-2.85.72-5.34,2.07-7.48,1.34-2.13,3.18-3.98,5.51-5.56,1.11-.82,2.28-1.61,3.49-2.39,1.21-.77,2.33-1.6,3.34-2.48,1.02-.89,1.85-1.84,2.51-2.88.66-1.03,1-2.22,1.03-3.57,0-.62-.07-1.29-.22-1.99-.15-.7-.44-1.36-.86-1.97-.43-.61-1.02-1.11-1.77-1.52-.75-.41-1.74-.61-2.95-.61-1.12,0-2.04.22-2.78.66s-1.33,1.05-1.77,1.82c-.44.77-.77,1.68-.98,2.73-.21,1.05-.34,2.18-.37,3.39h-5.61c0-1.9.25-3.66.76-5.29.51-1.62,1.27-3.02,2.29-4.21,1.02-1.18,2.25-2.11,3.71-2.78,1.46-.67,3.16-1.01,5.09-1.01,2.1,0,3.85.34,5.26,1.03s2.55,1.56,3.42,2.61c.87,1.05,1.48,2.19,1.84,3.42.36,1.23.54,2.4.54,3.52,0,1.38-.21,2.62-.64,3.74-.43,1.12-1,2.14-1.72,3.07-.72.93-1.54,1.8-2.46,2.58-.92.79-1.87,1.52-2.85,2.21-.98.69-1.97,1.34-2.95,1.97-.98.62-1.89,1.25-2.73,1.87-.84.62-1.57,1.27-2.19,1.94-.62.67-1.05,1.39-1.28,2.14h16.77v5.02Z"/>
  <path class="st1" d="M539.39,392.71h17.81v5.02h-13.62l-1.77,8.76.1.1c.75-.85,1.71-1.5,2.88-1.94,1.16-.44,2.32-.66,3.47-.66,1.7,0,3.23.29,4.57.86,1.34.57,2.48,1.38,3.39,2.41.92,1.03,1.61,2.25,2.09,3.66.48,1.41.71,2.93.71,4.57,0,1.38-.22,2.8-.66,4.25-.44,1.46-1.15,2.79-2.12,3.98-.97,1.2-2.21,2.18-3.71,2.95-1.51.77-3.31,1.16-5.41,1.16-1.67,0-3.22-.22-4.65-.66-1.43-.44-2.68-1.11-3.76-1.99s-1.94-1.98-2.58-3.27c-.64-1.3-.99-2.81-1.06-4.55h5.61c.16,1.87.8,3.3,1.92,4.3,1.11,1,2.59,1.5,4.43,1.5,1.18,0,2.18-.2,3-.59.82-.39,1.48-.93,1.99-1.62.51-.69.87-1.49,1.08-2.41.21-.92.32-1.9.32-2.95,0-.95-.13-1.86-.39-2.73-.26-.87-.66-1.63-1.18-2.29-.53-.66-1.21-1.18-2.04-1.57-.84-.39-1.81-.59-2.93-.59-1.18,0-2.29.22-3.32.66-1.03.44-1.78,1.27-2.24,2.48h-5.61l3.69-18.84Z"/>
  <g>
    <g>
      <g>
        <path class="st1" d="M610.95,291.45c-2.54-4.87-8.67-7.44-17.72-7.44-4.33,0-9.14.59-14.35,1.75-5.01-12.94-12.8-21.76-21.42-22.59-9.58-.94-18.08,7.9-22.68,23.24-4.3-.83-8.3-1.25-11.97-1.25-9.13,0-15.3,2.59-17.84,7.49-3.68,7.11,1.44,17.81,12.27,28.45-8.36,9.5-11.42,18.29-8.22,24.42,2.54,4.86,8.67,7.44,17.72,7.44h0c4.13,0,8.68-.54,13.5-1.56,4.95,9.35,11.42,15.01,18.36,15.68.45.04.91.07,1.36.07,4.13,0,8.17-1.89,11.69-5.46,2.33-2.36,4.39-5.39,6.16-8.94,4.07.75,7.92,1.14,11.47,1.14,9.13,0,15.3-2.59,17.84-7.49,3.3-6.38-.18-15.61-9.33-25.51,11.47-10.99,16.97-22.15,13.15-29.46ZM602.79,343.56c-2.38,4.6-8.49,7.14-17.19,7.14-2.11,0-4.33-.15-6.63-.43,2.24-5.23,3.89-11.4,4.83-18.13,4.72-3.21,8.97-6.58,12.67-9.97,6.74,8.31,9.11,16.01,6.33,21.39ZM538.05,346.73c.33.79.67,1.55,1.03,2.3-3.02.47-5.91.71-8.62.71-8.63,0-14.69-2.51-17.08-7.09-2.68-5.11-.7-12.34,5.28-20.21,4.3,4.03,9.4,8.03,15.14,11.8.46,1.67.96,3.3,1.52,4.89.57,1.88,1.19,3.68,1.84,5.39l.89,2.2ZM509.87,294.64c2.38-4.61,8.49-7.14,17.19-7.14,2.28,0,4.7.18,7.23.51-1.99,6.1-3.15,13.03-3.41,20.31-2.19,1.75-4.25,3.54-6.16,5.37-2.11,1.86-4.03,3.72-5.76,5.55-8.55-9.19-12.34-18.33-9.08-24.61ZM556.81,267.96c7.7.74,14.69,7.84,19.47,18.42-.26.07-.52.13-.78.2h0c-6.04,1.33-12.41,3.46-18.76,6.24-5.54-2.25-11.05-4-16.32-5.14-1.44-.37-2.85-.7-4.23-.99,4.52-12.44,12.2-19.54,20.61-18.73ZM596.11,319.12c-1.47-1.49-3.06-2.99-4.78-4.5-2.2-2.09-4.6-4.13-7.16-6.11-.79-7.73-2.44-14.97-4.73-21.29,3.39-.58,6.6-.87,9.56-.87,8.62,0,14.69,2.52,17.08,7.09,3.4,6.5-.76,16.11-9.97,25.68ZM570.21,338.11c-4.47,2.37-8.99,4.41-13.46,6.1-3.6-1.45-7.23-3.13-10.82-5.02-3.85-2.03-7.48-4.2-10.87-6.47-1.42-6.4-2.21-13.24-2.3-20.12-.02-1.23,0-2.46.02-3.68,5.09-3.77,10.75-7.34,16.72-10.51,2.41-1.28,4.84-2.48,7.29-3.59,3.23,1.39,6.46,2.93,9.65,4.61,5.6,2.95,10.93,6.24,15.78,9.73.3,2.76.47,5.59.51,8.46.06,4.64-.26,9.17-.91,13.44-3.59,2.47-7.48,4.84-11.62,7.04ZM559.48,345.28c3.86-1.61,7.76-3.45,11.64-5.51,3.59-1.91,7.01-3.92,10.24-6.02-1.16,6.07-3.01,11.56-5.43,16.07-5.21-.88-10.78-2.42-16.46-4.54ZM567.37,297.78c-2.74-1.44-5.51-2.77-8.29-3.97,5.66-2.46,11.32-4.46,16.72-5.88.35-.08.7-.15,1.05-.22,2.37,5.61,4.14,12.12,5.1,19.13-4.47-3.27-9.39-6.33-14.58-9.06ZM540.12,289.03h0c4.64,1.21,9.48,2.83,14.35,4.82-1.97.91-3.93,1.88-5.88,2.92-5.65,3-10.96,6.38-15.73,9.99.3-6.58,1.26-12.9,2.83-18.55,1.44.22,2.92.49,4.43.82ZM529.32,328.59c-3.41-2.63-6.48-5.34-9.14-8.06,1.6-1.92,3.42-3.88,5.47-5.84,1.63-1.44,3.36-2.87,5.17-4.27,0,.73-.01,1.45,0,2.18.08,6.42.85,12.77,2.24,18.74-.69-.49-1.38-.98-2.04-1.47l-1.69-1.28ZM536.62,338.7h0c-.32-1.06-.62-2.13-.9-3.22,2.95,1.86,6.05,3.66,9.29,5.36,3,1.58,6.02,3.03,9.02,4.35-4.43,1.54-8.77,2.71-12.89,3.48-1.7-2.93-3.23-6.26-4.53-9.97ZM584.69,317.63c-.03-2.32-.14-4.62-.32-6.88,2.11,1.6,4.13,3.23,6.01,4.88,1.66,1.58,3.17,3.15,4.54,4.7-3.11,3.09-6.73,6.16-10.79,9.11.41-3.8.61-7.76.56-11.81ZM556.79,346.36c6.12,2.52,12.15,4.45,17.83,5.73-1.18,1.87-2.48,3.54-3.87,4.95-3.4,3.45-7.31,5.27-11.29,5.27h0c-.44,0-.87-.02-1.31-.07-5.7-.55-11.15-4.62-15.61-11.37,4.58-1.1,9.38-2.62,14.26-4.53Z"/>
        <path class="st1" d="M559.97,367.38c-.45,0-.9-.02-1.38-.07-6.88-.67-13.43-6.22-18.46-15.65-4.82,1.01-9.32,1.53-13.37,1.53-9.14,0-15.34-2.61-17.92-7.56-3.22-6.15-.34-14.85,8.1-24.51-11.17-11.02-15.72-21.69-12.16-28.57,2.58-4.98,8.82-7.62,18.04-7.62,3.6,0,7.57.41,11.81,1.21,4.42-14.58,12.43-23.27,21.45-23.27.47,0,.94.02,1.41.07,8.42.81,16.26,9.03,21.54,22.55,5.15-1.14,9.92-1.72,14.21-1.72,9.14,0,15.34,2.61,17.92,7.56,3.71,7.1-1.16,18.15-13.03,29.58,9.13,9.94,12.49,19.26,9.21,25.6-2.58,4.98-8.82,7.61-18.04,7.61-3.47,0-7.29-.38-11.34-1.12-1.78,3.56-3.84,6.54-6.12,8.85-3.57,3.61-7.67,5.52-11.86,5.52ZM540.38,351.14l.08.15c4.96,9.38,11.42,14.91,18.18,15.56.47.04.9.07,1.33.07,4.06,0,8.05-1.86,11.53-5.39,2.28-2.31,4.34-5.3,6.12-8.88l.08-.15.17.03c4.09.76,7.94,1.14,11.43,1.14,9.04,0,15.14-2.55,17.63-7.37,3.2-6.19-.18-15.4-9.29-25.25l-.15-.16.16-.15c11.83-11.33,16.73-22.24,13.1-29.19-2.5-4.78-8.56-7.31-17.51-7.31-4.3,0-9.11.59-14.3,1.75l-.19.04-.07-.18c-5.22-13.46-12.96-21.65-21.23-22.45-.46-.04-.92-.07-1.37-.07-8.84,0-16.72,8.65-21.07,23.14l-.06.2-.2-.04c-4.28-.82-8.29-1.24-11.92-1.24-9.04,0-15.14,2.55-17.63,7.37-3.48,6.72,1.1,17.26,12.23,28.18l.15.15-.14.16c-8.42,9.57-11.33,18.15-8.19,24.16,2.5,4.78,8.56,7.31,17.52,7.31,4.07,0,8.59-.52,13.45-1.55l.17-.04ZM559.45,362.55c-.44,0-.89-.02-1.34-.07-5.73-.55-11.19-4.52-15.78-11.47l-.18-.27.32-.08c4.58-1.1,9.37-2.62,14.23-4.52l.09-.03.08.03c6.1,2.51,12.09,4.44,17.79,5.72l.31.07-.17.27c-1.2,1.91-2.52,3.59-3.9,4.99-3.45,3.49-7.41,5.34-11.46,5.34ZM542.89,351.03c4.42,6.57,9.83,10.47,15.26,10.99.44.04.87.07,1.29.07,3.93,0,7.78-1.8,11.13-5.21,1.3-1.31,2.53-2.87,3.67-4.64-5.6-1.28-11.48-3.18-17.46-5.64-4.74,1.85-9.41,3.34-13.89,4.43ZM585.6,350.92c-2.1,0-4.34-.15-6.66-.43l-.3-.04.12-.28c2.25-5.25,3.87-11.33,4.81-18.07v-.1s.1-.06.1-.06c4.65-3.16,8.9-6.51,12.64-9.95l.18-.16.15.19c6.91,8.52,9.17,16.2,6.35,21.64-2.42,4.68-8.6,7.26-17.39,7.26ZM579.3,350.08c2.2.26,4.32.39,6.3.39,8.61,0,14.65-2.49,16.99-7.02,2.7-5.23.52-12.67-6.15-20.96-3.69,3.38-7.87,6.67-12.43,9.77-.93,6.62-2.52,12.61-4.71,17.81ZM576.06,350.07l-.16-.03c-5.24-.89-10.79-2.42-16.5-4.55l-.54-.2.53-.22c3.89-1.62,7.8-3.47,11.63-5.5,3.52-1.87,6.96-3.89,10.23-6.01l.45-.29-.1.52c-1.16,6.06-3.04,11.64-5.45,16.13l-.08.14ZM560.1,345.26c5.44,2,10.72,3.44,15.71,4.3,2.29-4.29,4.09-9.58,5.23-15.33-3.15,2.02-6.44,3.95-9.81,5.74-3.66,1.94-7.4,3.72-11.13,5.3ZM530.45,349.97c-8.72,0-14.85-2.56-17.28-7.21-2.69-5.15-.81-12.41,5.3-20.45l.15-.2.18.17c4.38,4.11,9.46,8.07,15.11,11.77l.07.05.02.08c.46,1.68.97,3.32,1.52,4.87.55,1.83,1.17,3.64,1.84,5.39l.88,2.2c.34.8.68,1.58,1.02,2.29l.13.28-.3.05c-3.06.48-5.97.72-8.66.72ZM518.68,322.79c-5.88,7.81-7.69,14.83-5.11,19.77,2.34,4.49,8.33,6.96,16.86,6.96,2.59,0,5.38-.22,8.3-.67-.3-.64-.6-1.32-.9-2.03l-.89-2.2c-.68-1.76-1.3-3.58-1.85-5.41-.54-1.53-1.04-3.15-1.5-4.81-5.56-3.65-10.58-7.55-14.92-11.6ZM541.04,348.93l-.08-.14c-1.73-2.98-3.26-6.34-4.55-10.01-.31-1.04-.62-2.13-.9-3.24l-.14-.56.49.31c2.99,1.88,6.11,3.68,9.28,5.35,2.96,1.56,5.99,3.02,9.01,4.34l.53.23-.55.19c-4.44,1.54-8.79,2.72-12.92,3.48l-.16.03ZM536.09,335.99c.24.91.49,1.8.75,2.65,1.25,3.57,2.74,6.86,4.43,9.78,3.89-.73,7.98-1.82,12.15-3.25-2.85-1.26-5.71-2.65-8.5-4.12-3.01-1.58-5.97-3.29-8.82-5.06ZM556.75,344.46l-.08-.03c-3.64-1.47-7.29-3.16-10.84-5.03-3.78-1.99-7.44-4.17-10.89-6.48l-.08-.05-.02-.09c-1.44-6.47-2.22-13.26-2.31-20.16-.01-1.18,0-2.42.02-3.68v-.11s.09-.07.09-.07c5.15-3.82,10.79-7.36,16.75-10.53,2.37-1.26,4.82-2.47,7.3-3.6l.09-.04.09.04c3.26,1.4,6.51,2.96,9.67,4.62,5.6,2.95,10.92,6.23,15.81,9.75l.08.06v.1c.31,2.8.49,5.65.52,8.48.06,4.59-.25,9.13-.92,13.48v.1s-.1.06-.1.06c-3.67,2.52-7.59,4.9-11.64,7.05-4.43,2.35-8.96,4.41-13.48,6.11l-.08.03ZM535.27,332.59c3.41,2.29,7.04,4.44,10.77,6.4,3.51,1.85,7.11,3.52,10.71,4.98,4.47-1.7,8.96-3.73,13.35-6.06,4.01-2.13,7.89-4.48,11.52-6.97.65-4.3.95-8.78.9-13.31-.03-2.78-.2-5.59-.5-8.34-4.85-3.49-10.13-6.74-15.67-9.66-3.12-1.64-6.33-3.17-9.54-4.56-2.44,1.12-4.85,2.31-7.18,3.55-5.91,3.14-11.49,6.64-16.61,10.42-.03,1.22-.04,2.41-.02,3.56.09,6.84.85,13.56,2.27,19.98ZM533.41,331.87l-.49-.34c-.69-.49-1.38-.98-2.05-1.48l-1.7-1.28c-3.4-2.62-6.48-5.34-9.16-8.08l-.14-.15.13-.16c1.62-1.95,3.47-3.92,5.49-5.86,1.62-1.44,3.37-2.88,5.18-4.28l.37-.29v.47c-.01.72-.02,1.45,0,2.18.08,6.4.83,12.68,2.23,18.69l.14.58ZM520.49,320.52c2.64,2.68,5.65,5.34,8.97,7.89l1.69,1.28c.51.38,1.03.75,1.55,1.12-1.32-5.86-2.03-11.98-2.11-18.2,0-.57,0-1.15,0-1.72-1.68,1.31-3.28,2.64-4.78,3.97-1.95,1.87-3.74,3.77-5.32,5.65ZM583.85,329.93l.06-.51c.42-3.84.6-7.81.56-11.78-.03-2.28-.14-4.59-.32-6.86l-.04-.51.4.31c2.15,1.62,4.17,3.26,6.03,4.89,1.64,1.56,3.17,3.14,4.56,4.72l.14.16-.15.15c-3.16,3.14-6.79,6.21-10.81,9.13l-.42.3ZM584.64,311.24c.16,2.12.25,4.27.28,6.39.05,3.82-.12,7.63-.5,11.33,3.77-2.77,7.2-5.67,10.19-8.63-1.34-1.52-2.82-3.04-4.38-4.53-1.72-1.51-3.6-3.04-5.59-4.56ZM518.95,319.58l-.17-.18c-8.98-9.66-12.3-18.72-9.12-24.87,2.42-4.68,8.6-7.26,17.39-7.26,2.25,0,4.69.17,7.26.52l.27.04-.09.26c-1.97,6.02-3.14,13.03-3.4,20.25v.1s-.09.07-.09.07c-2.21,1.76-4.27,3.56-6.15,5.36-2.08,1.84-4.01,3.7-5.75,5.55l-.17.18ZM527.05,287.72c-8.61,0-14.64,2.49-16.98,7.02-3.07,5.93.17,14.73,8.88,24.17,1.7-1.79,3.59-3.61,5.61-5.39,1.85-1.77,3.9-3.56,6.09-5.31.26-7.12,1.42-14.03,3.34-20.01-2.45-.32-4.78-.48-6.93-.48ZM596.11,319.45l-.16-.17c-1.47-1.49-3.07-3-4.76-4.48-2.17-2.06-4.57-4.11-7.15-6.1l-.08-.06v-.1c-.79-7.6-2.38-14.75-4.73-21.24l-.09-.26.27-.05c3.41-.58,6.64-.87,9.6-.87,8.71,0,14.85,2.56,17.28,7.21,3.34,6.4-.3,15.86-10.01,25.95l-.16.17ZM584.39,308.39c2.57,1.99,4.96,4.03,7.1,6.07,1.63,1.43,3.19,2.89,4.62,4.33,9.44-9.88,13-19.07,9.77-25.25-2.35-4.49-8.34-6.97-16.88-6.97-2.86,0-5.97.28-9.26.82,2.31,6.43,3.87,13.49,4.64,20.99ZM582.25,307.34l-.43-.32c-4.49-3.28-9.39-6.32-14.55-9.04-2.7-1.42-5.49-2.76-8.27-3.96l-.48-.21.48-.21c5.72-2.49,11.35-4.47,16.75-5.89.28-.06.54-.12.8-.17l.45-.09.07.17c2.41,5.7,4.18,12.34,5.11,19.19l.07.53ZM559.65,293.81c2.63,1.15,5.26,2.42,7.82,3.77,5.02,2.64,9.79,5.59,14.18,8.76-.93-6.56-2.64-12.89-4.93-18.37l-.08.02c-.26.05-.52.11-.79.17-5.22,1.37-10.67,3.28-16.2,5.66ZM532.62,307.24l.02-.49c.31-6.66,1.26-12.91,2.84-18.6l.05-.2.2.03c1.5.23,2.99.51,4.44.82,4.64,1.2,9.47,2.83,14.39,4.83l.48.2-.47.22c-2,.93-3.98,1.91-5.87,2.91-5.62,2.98-10.9,6.34-15.69,9.97l-.39.29ZM535.86,288.47c-1.5,5.46-2.42,11.45-2.74,17.82,4.71-3.54,9.88-6.8,15.37-9.72,1.75-.93,3.57-1.84,5.42-2.7-4.73-1.91-9.38-3.46-13.83-4.61-1.37-.3-2.78-.56-4.2-.79ZM556.74,293.08l-.09-.04c-5.57-2.27-11.05-4-16.28-5.13-1.41-.37-2.83-.7-4.23-.99l-.26-.05.09-.25c4.3-11.86,11.61-18.94,19.53-18.94.44,0,.88.02,1.32.06,7.49.72,14.65,7.49,19.65,18.56l.11.25-.4.1c-.21.05-.42.11-.64.16-6.03,1.33-12.33,3.43-18.73,6.23l-.09.04ZM536.5,286.53c1.32.28,2.66.6,3.98.94,5.22,1.13,10.69,2.86,16.26,5.12,6.39-2.8,12.69-4.89,18.71-6.22l.51-.13c-4.93-10.77-11.9-17.34-19.17-18.04-.42-.04-.85-.06-1.28-.06-7.67,0-14.76,6.87-19.01,18.4Z"/>
      </g>
      <g>
        <path class="st1" d="M557.76,311.08c-4.65,0-8.43,3.79-8.43,8.46s3.78,8.46,8.43,8.46,8.42-3.79,8.42-8.46-3.78-8.46-8.42-8.46Z"/>
        <path class="st1" d="M557.76,328.22c-4.77,0-8.65-3.9-8.65-8.69s3.88-8.68,8.65-8.68,8.65,3.9,8.65,8.68-3.88,8.69-8.65,8.69ZM557.76,311.3c-4.52,0-8.2,3.69-8.2,8.23s3.68,8.23,8.2,8.23,8.2-3.69,8.2-8.23-3.68-8.23-8.2-8.23Z"/>
      </g>
    </g>
    <path class="st2" d="M601.23,285.87c0,2.2-1.87,3.99-4.16,3.99s-4.17-1.79-4.17-3.99,1.87-3.98,4.17-3.98,4.16,1.78,4.16,3.98Z"/>
    <path class="st2" d="M514.06,309.54c0,2.2-1.87,3.98-4.17,3.98s-4.17-1.78-4.17-3.98,1.87-3.99,4.17-3.99,4.17,1.79,4.17,3.99Z"/>
    <path class="st2" d="M545.32,348.67c0,2.2-1.87,3.98-4.17,3.98s-4.17-1.78-4.17-3.98,1.87-3.99,4.17-3.99,4.17,1.79,4.17,3.99Z"/>
    <path class="st2" d="M608.97,336.16c0,2.2-1.87,3.99-4.17,3.99s-4.17-1.78-4.17-3.99,1.86-3.99,4.17-3.99,4.17,1.79,4.17,3.99Z"/>
    <path class="st2" d="M546.9,272.16c0,2.2-1.87,3.99-4.17,3.99s-4.17-1.79-4.17-3.99,1.87-3.98,4.17-3.98,4.17,1.79,4.17,3.98Z"/>
  </g>
  <path class="st2" d="M204.39,335.5h19.98l22.36,63.46h.23l21.8-63.46h19.75v81.05h-13.51v-62.55h-.23l-22.48,62.55h-11.69l-22.48-62.55h-.23v62.55h-13.51v-81.05Z"/>
  <g id="kbHn8d">
    <g>
      <path class="st1" d="M267.11,439.2c1.16-1.38,2.19-3.06,2.76-4.77.36-.02.6-.13.47.35-.29,1.04-1.16,3.07-1.61,4.16-6.16,15.04-19.14,29.49-36.87,28.36-1.37-.09-4.05-.96-5.01-.91-.35.02-.56.32-.87.4l-.16-.77c-1.85.2-3.13-1.88-4.85-1.24l.02-.61c-5.59-3.09-10.13-7.63-13.95-12.68-1.19.7-2.15,1.47-3.37.49.67-.72.9-1.22.75-2.25l.25,1,.96-.91-.87-1.33c-1.95.94-2.61,4.07-5.11,2.49-.1-.41.15-.51.37-.75.59-.68,4.42-3.52,3.16-4.4-.22-.16-.61-.16-.88-.12-1.06.17-3.66,3.99-4.66,4.4-.54.23-1.2-.38-1.74-.4l.04-.7,5.4-5.11c.26-.91-.36-1.8-1.33-1.21-.78.47-4.7,4.59-5.52,5.53-.19.22-.37.45-.37.76l-1.75-.76c-.21-.93.6-.97,1.01-1.45s.25-.99.29-1.02c.28-.23,1.07-.39,1.61-.88,1.34-1.23,2.44-3.07,4.06-3.97-.07-3.89-3.27.22-3.72,1.8l-.37-.5-4.39,4.65-.57.08c-1.2-.59-1.43-.68-.66-1.77,1.08-1.53,4.61-4.37,6.14-5.96.29-.3.28-.79.43-.94.61-.61,2.16-.33.28-2.07-.19-.03-2.17,1.89-2.49,2.23-1.54,1.57-3.45,3.6-5,5.02-.36.33-1.09,1.26-1.39,1.4-.67.3-2.4-.69-2-1.39,1.03.19,2.14-1.08,2.25-2.14,1.01.3.64-.15,1.12-.62,2.16-2.13,4.36-4.15,6.4-6.39-.3-.36-.54-.65-1-.37v-1.01s-5.91,5.76-5.91,5.76c-.18,1.07-.91.93-1.23,1.26-.74.75-2.23,2.91-3.06,2.99-.43.04-.8-.75-1.33-.73-.14-.2.41-.97.58-1.15,1.55-1.68,3.7-3.41,5.33-5.1.57-.59.78-.89,1.6-1.63.73-.67.49-1.05.55-1.09.13-.11.57-.06.83-.28,1.29-1.08,1.69-2.18-.35-2.48-1.49,2.32-4.01,4.06-5.82,6.11-.5.56-.43.43-1,.99-.61.6-2.49,2.78-3,3.04-.69.35-1.29-.87-2-.9-.11-.78.58-.5,1-.85.69-.57,3.12-2.87,3.53-3.53.26-.41-.03-.72-.02-1.13l.62.5,5.51-5.53c.46-.68-.66-1.56-1.31-1.17-2.66,2.73-5.4,5.44-8.08,8.15-.27.27-.32.71-.6.98-.26.25-1.18.43-1.41,1.23-2.64-1.11-1.19-1.41-.24-2.52,1.68-1.95,4.06-4.36,6.09-6.32.55-.53,2.75-2.2,2.9-2.77.22-.83-1-1.45-1.62-.84-2,2.23-4.16,4.29-6.3,6.37-.4.39-.77.75-1.21,1.17s-2.39,2.61-2.75,2.51l-1.13-1.37c.67-.8,1.6-1.47,2.24-2.27.36-.45.74-1.52.81-1.57.27-.22.78-.35,1.54-.97,1.24-1.02,1.85-1.51,2.43-3.09l.37.5,2.53-2.5-.43-1.22c-.3-.11-.61-.08-.91.04-.17.07-2.14,2.38-2.45,2.68-.74.74-2.31,1.18-1.63,2.51-.97-.53-1.46.37-2.1,1.04-.38.4-.86.78-1.03.97-.53.6.13,1.42-1.39,1.26v.88c-1.28.33-1.62.51-2.44-.75l.32-.62,9.65-9.54-1.76-.64c-.7.8-1.57,1.47-2.27,2.27-.42.47-.93,1.16-1.57,1.79-1.47,1.45-3.23,2.76-4.57,4.34-.26.31-.35.6-.39,1-1.56.03-1.72-.56-1.97-1.96.64-.04,1.36-.79,1.87-1.27,1.06-.99,2.02-2.11,3.04-3.13.66-.67,1.13-.88,1.76-1.49.28-.27,2.16-2.27,2.23-2.42.46-.89-1.03-1.31-2.03-.5-.66.53-1.03,1.46-1.41,1.96-.03.05-.38-.14-.58.03-.74.61-1.37,1.71-2.27,2.27l.39,1c-2.01-.3-2.7,1.8-4.14,2.76l-1.01-1.51,4.18-4.13-.03-.88,1.26-.38-.5-.62c1.33.47,1.2-.27,1.84-.92.47-.47,1.35-.61,1.17-1.59-.64.11-1.48-.41-2.02.12-.2.2-.04.54-.14.64-1,1.09-2.82,1.98-3.96,3.5-.15.19.47.66-.66.51l.21.46c-.98.09-1.01,1.22-1.27,1.48-.69.69-2.09.35-2.2-.83-.09-.95,1.57-1.5,1.51-2.62l.72.24,4.43-4.76c.28-.61-1.38-1.02-1.83-.68-1.64,2.17-4.27,3.71-5.57,6.08-.35.29-1.91-1.1-1.4-1.89l3.9-3.64c.41-.25.38-1.19.56-1.34.29-.25.74.38.65-.75-1.1-.41-1.15-.73-1.96.33l.5.37c-.74.07-2.02,1.06-2.53,1.62-.43.48-.05.18-.86.88-.42.37-1.22,1.59-1.85,1.23-.05-.03-.53-.98-.54-1.11-.11-1.15,1.94-1.64,2.08-2.79l2.19-2.08-1.96-.46-3.55,3.47-.7-1.58,2.43-2.45c-.85-2.8-2.88.89-3.36.77-.86-.95-1.33-1.68-.19-2.63.07-.51-2.2-1.6-2.68-1.78-.39-.14-1.11-.03-1.24-.15-.09-.09.1-.48-.2-.71-.96-.74-4.28-1.87-5.51-2.59-1.5-.88-4.95-3.83-6.35-4.28-.26-.08-.69.16-.75.1-.05-.06.11-.49-.17-.77-.58-.6-2.22-1.45-2.94-2.03-1.96-1.6-3.92-3.22-5.88-4.77-.04-.03.1-.61-.29-1.03-.34-.36-1.54-.98-1.94-1.49-13.74-17.26-13.5-37.25,1.19-54.18,9.77-11.26,22.54-16.64,37.15-19.84.74-.16,2.41-.79,2.83-.87,1.37-.27,3.87-.14,5.24-.59.45-.15.23-.76.65-.72l.47,1.97c-.38.1-.58.25-.78.6-.88,1.54-1.32,4.34-1.91,6.06l-3.54.65c-.24.67.45.4.49.66.02.14-.19.4-.09.6.7,1.43,1.59,1.41-.89,2.25,0-.45-2.02-2.49-2.19-2.51-.98-.16-1.11.52-1.83.77-.12.19,1.03,1.41,1.24,1.63.43.46.86.96,1.49,1.16l-.97,1.59c-1.18.21-.95-.64-1.33-1.05-.41-.44-1.68-.95-2.07-1.82l-.62.5v-1.25s-2.26.51-2.26.51c-.16.17,2.99,3.31,3.21,3.5.26.23.96.47,1.01.56.43.73-.9,2.16-1.71,1.96.02-1.5-1.97-2.14-2.7-2.84-.1-.09-.04-.46-.16-.57-.54-.5-1.46-1.65-2.24-1.55-.39.05-2.54.91-1.7,1.57l5.16,4.88c.58.39-.52,1.67-.78,1.75-.45.13-1.39-.83-2.1-.49-.12-.64.12-.4.5-.62l-5.17-5.13-2.35,1c-.09.36.06.41.25.63,1.18,1.35,3.28,3.34,4.63,4.63.41.39,1.37.73,1.82,1.31.05.07-.14.27-.1.38s.47-.03.43.42c-.05.62-.89,1.66-1.52,1.28l-6.95-7.15c-1.1-.23-1.94.49-2.79,1.02-.2.5,1.88,2.33,2.35,2.73.26-.35-.05-.64.63-.5-.6,1.28.34,1.22.92,1.84,1.12,1.2,2.29,2.71,3.44,3.85.17.17.98,0,.86.91l-.75,1.11h-.9s-8.08-8.35-8.08-8.35c-.67-.36-1.88.74-1.76,1.63l-.75-.25,9.04,9.21c.57.92-.49,2.12-1.5,1.8-.16-1.02-1.31-1.66-2.02-2.37-.55-.56-1.29-1.99-2.02-1.37.13-1.38-.63-1.06-.93-1.31-.2-.17-.17-.6-.41-.86-1.11-1.25-2.57-2.23-3.57-3.6h-.46s-1.59,1.55-1.59,1.55c-.29.63.87,1.56,1.32,1.97s.53.48.89.84c2.54,2.55,5.23,5.01,7.65,7.69.26.66-.58,1.31-1.01,1.74l-6.65-6.76h-.37s-.88.75-.88.75l.43-1.45-2.82-2.81-2.01,2c-.09.2,2.26,2.9,2.44,2.96.31.12.79-.32.95-.21.21,1.37.95,1.93,1.81,2.84s1.91,1.93,2.87,2.9c.65.65,2.19,2.3,2.99,2.79.34.21.51-.19.37.74l-.99-.49-.29.97-.97-.11-10.17-10.4-1.64,1.61c-.33.47-.37,1.08,0,1.54l11.05,11.03-1.13,1.37h-.37c-.02-.93-1.28-.74-2.01-.75-.32-.62.51-.44.51-.63,0-.98-1.16-1.11-1.53-1.49-1.25-1.26-2.64-2.63-4.01-4.03-.31-.32-.36-.91-.56-1.07-.28-.24-1.38-.25-1.44-.32-.03-.03.3-.45.15-.75-.04-.07-.99-.96-1.15-1.1-.1-.09-.41.08-.46.04-.22-.19-.24-1.54-.81-.79-.48.63-1.3,2.78-.75,3.5,2.47,2.12,4.62,4.58,6.91,6.89.43.44.78.78,1.25,1.26.55.56,2.46,2.07,2.62,2.67.12.45-.38,1.77-1.09,1.58-.12-.03-1.36-1.55-1.65-1.83-.53-.5-1.74-1.36-2.25-1.86-1.57-1.54-4.29-5.21-5.96-6.33-.41-.27-.75-.62-1.3-.52-.15,1.24-1.11,2.55-.32,3.69l9.67,9.78c1.41-.07.75.6,1.18,1.68-.58.16-.51.84-.74,1.05-.69.61-1.17-.85-1.36-1.06-2.8-3-6-5.64-8.7-8.73l-.99-.14v3.89c0,.75,9.49,9.21,10.53,10.59v2.33c-1.41.01-1.42-1.03-1.99-1.64-1.46-1.55-3.61-3.21-5.21-4.7-.28-.26-.38-.9-.64-1.11-.45-.36-1.36-.26-1.42-.34-.13-.14.2-1.22-.39-1.49-.62-.14-.4.79-.35,1.1.3,2.12,1.96,5.43,3.14,7.14.75,1.09.23.6.57,1.42.29.71,3.01,4.16,3.66,4.89,2.39,2.71,6.07,5.7,9,7.81,1.89,1.37,4.48,3.33,6.67,3.84.88.21.58.8.76.98.5.5,3.63,2,4.53,2.49,1.65.88,3.9,2.06,5.85,2.99.39.19.8-.06.88-.01,2.16,1.35,4.56,2.72,7.15,4.03.59.3.3-.04,1.18.53.46.3,1,.47,1.37.9l.37-.5c.02.22-.07.53.05.69.11.14,2.74,1.29,3.25,1.59,3.69,2.19,6.8,4.5,10.37,6.76,14.44,9.18,18.62,28.54,30.46,39.5.38.35,2.9,2.52,3.27,2.13v-1.01s1.74.26,1.74.26c-.09,1.83-.19,2.93,2.02,2.75v-2.51s1.52.11,1.52.11l.27,3.62,1.72.54v-4.26l1.64-.19.36.31v4.26c.41.57,1.15.36,1.76.38v-5.14c.29-.5,2.01-.88,2.01-.25v5.02c.41.57,1.15.36,1.76.38v-6.4c0-.47,1.24-.98,1.76-.63v6.77l2-.25.03-7.62,1.72-.91v7.78l1.62-.49c0-.97.34-1.93.39-2.89.09-1.43-.3-4.35.04-5.48.17-.58,1.13-1,1.71-.93v8.28c.81.06,1.52-.37,1.7-1.18.52-2.27-.27-5.99.05-8.42l1.51-1.06.5.25v8.28c0,.1-.64.44.12.37l1.64-1.18c.29-1.71-.5-8.48.23-9.5.2-.28,1.44-1.05,1.77-.86l-.25,8.78c.11.13,1.89-1.2,1.95-1.3.41-.7-.21-7.39.11-9.06.13-.64,1.04-1.29,1.7-1.43v8.28c.56.04,1.15-.63,1.25-1.13.45-2.35-.32-5.97,0-8.47l1.76-1.18v7.53c.57.13.41-.08.58-.31.43-.59.62-2.04.67-2.83.19-2.53-1.13-5.76,1.25-7.28l.51.26v6.15c2.7-2.34-1-7.63,2.76-9.53v5.27Z"/>
      <path class="st2" d="M232.18,291.02c8.71,3.13,17.2,9.24,24.32,15.05.93.76,1.66,2.11,3.06,2.46l-.21.45c1.07-.09.9.76,1.07.92,1.49,1.38,3.24,2.74,4.74,4.12.21.19,1.47,1.26,1.2,1.49-.47.05-1.02-.35-1.39-.6-6.98-4.67-14.1-10.55-21.98-13.98-.29-.13-.2-.72-.93-.46l-1.06,3.2c-4.56,1.3-.57-2.42-.71-4.07-.46-.63-1.32-.49-1.82-.67-.24-.08-.31-.84-1.16-.45l-2.03,4.12-1.74-.16c-.43-.64,1.71-4.08,1.98-4.99-.06-.07-1.28-.13-1.56-.26-.31-.15-.61-1.21-1.42-.71-.12.08-1.21,2.17-1.38,2.51-.9,1.8-.45,3.63-3.17,2.73-.12-1.48,2.68-4.68,2.14-5.77-.68-.77-2.13-.53-3.13-.74l-2.81,6.22-1.86-.19c-.45-.61.68-1.78.94-2.35s1.76-3.8,1.7-4.04c-.24-.82-3.14-.08-3.97-.37l-3.18,6.72c-.73,1.07-1.4.64-2.35.25-.19-.66.42-.93.68-1.43.54-1.05,2.44-4.59,2.58-5.45.07-.44.01-.39-.36-.35-1.2.14-2.17-.15-3.12.88l-3.42,6.87c-4.23,1.73-1.46-1.36-.58-3.09.69-1.35,1.23-2.84,1.97-4.18-.79.07-3.34.19-3.7.82.14.91-.43.86-.64,1.24-1,1.8-1.81,4.46-3.06,6.21-.55.76-1.49,1.41-2.34.65l3.48-7.04c-1.54-.65-1.88.22-2.78.74-.38.22-.82.1-1.25.5-.34.32-1.24,2.36-1.54,2.98-.45.89-.89,2.28-1.35,3.16-.53,1.02-1.93,2.25-3.11,2.03-.03-.2.01-.38.05-.57.1-.56.8-1.82,1.1-2.41.32-.64,1.23-1.73,1.36-2.41.17-.88-1.16.1-1.45.3-2.72,1.88-6.09,6.61-7.64,9.42-7.12,12.87-7.25,27.96-9.5,42.18-2.57,16.22-9.63,29.45-18.1,43.12-.91,1.47-.53,3.03-2.66,2.04-.87-.4-7.46-4.22-7.69-4.61l.77-1.49-.12-.59-9.54-9.41c-.83-1.03-1.5-2.24-1-3.57,3.43,2.79,6.29,6.24,9.47,9.27.27.26.74.34.99.59.33.33.86,2.21,1.68,1.16.29-.37,1.12-1.75,1.14-2.13.05-.9-2.49-3.26-3.24-4.01-2.08-2.07-4.53-4.5-6.65-6.64-.61-.61-3.25-2.79-3.29-3.37-.03-.47.36-1.13.4-1.63l.74.17,11.91,12.12c.96-.13,1.17,1.98,1.69.93.44-.89.92-1.7,1.38-2.57l-4.76-5.07c-1.01-.11-.82-.8-1.01-.98-2.67-2.7-5.47-5.33-8.21-7.97-.57-.39-.12-2.55.51-2.29l14.09,14.12.54.02,1.67-2.6-15.01-14.71.47-1.97.89.24,14.03,14.07.63.24,1.5-3-14.75-14.74.21-1.58,1.14.23c1.53,1.55,2.92,3.29,4.49,4.8.74.72,1.64,1.1,2.14,1.49.02.02-.23.32-.17.44.05.13,1.68,1.75,1.91,1.96,1.48,1.42,2.99,2.92,4.67,4.37.55.47.44.99,1.61,1l.9-2.75-14.21-14.18c-.42-1.09.2-2.38,1.46-1.56,1.52,1.7,3.06,3.5,4.68,5.1,2.59,2.57,5.41,5.6,8.03,8.03.17.16.98.76,1.16.59l.63-2.99c-.39-.93-1.33-1.11-1.8-1.61-1.81-1.92-3.56-3.95-5.44-5.83-.97-.97-2.25-2.31-2.99-3.05-.7-.7-3.21-2.49-3.31-3.19-.17-1.15.55-1.4,1.58-1.34l12.34,12.63.63-.14.75-2.77-12.06-12.27c-.17-.57.53-1.72,1.15-1.4.83.43,3.36,3.42,4.25,4.3.49.48.91.86,1.41,1.35,1.77,1.74,3.57,3.45,5.25,5.28.22.29.29.31.5,0,.07-.1.6-2.23.62-2.4.1-1.39-2.15-2.34-2.92-3.18-.05-.05.14-.33.09-.38-2.32-2.35-4.77-4.7-7.21-6.94l-.23-1.9,1.58.23c2.82,2.67,5.7,6.57,8.7,8.92.27.21.31.56.63.13l.23-3-8.06-8.1c-.6-.61,1-1.94,1.4-1.67l6.72,6.96c1.1.31,1.43-2.89.24-3.64-.43-.27-.82.21-.48-.53l-4.87-4.95.72-1.08c.97-.57,2.42,1.9,3.03,2.39.36.28.97.21,1.13.38.31.31.43,2.21,1.8,1.69.48-1.77.06-2.36-1.17-3.52-.79-.75-1.05-.86-1.82-1.81-.3-.36-.88-.36-.65-1.19.73-2.67,3.86,2.58,4.41,2.01.64-2.23.03-2.72-1.47-4.17l.47-1.59c.4-.11.18.34.3.41.17.1,1.55.42,1.69.33.5-2.06.85-4.17,1.45-6.2,3.25-10.99,9.75-23.11,20.18-28.43.28-.14.36-.67.96-.47l-.25-.5c1.95-.27,3.63-1.32,5.48-1.93,8.77-2.91,20.39-2.19,29.31,1.01Z"/>
      <path class="st2" d="M147.23,404.83l-.25.5c.31.01.67.04.94.19,2.35,1.3,4.6,3.07,7.29,3.87.63.42-1.02,3.47-1.2,4.21.9.06.81-1.13,1.68-1.21s1.25,1.24,1.01,1.91c-.09.25-3.39,2.79-3.91,3.73-.4.72-.54,1.78-.53,2.6.45.09.62-.23.88-.5,1.45-1.47,2.93-2.92,4.27-4.5.82-.28.91.96,1.3,1.37l-7.37,7.45-.08,2.2c.35.04.67-.11.92-.33,1.03-.88,2.32-2.75,3.33-3.76.43-.43.88-.89,1.35-1.34s2.59-2.63,3.15-2.31l.77,1.61c-1.6,1.32-3.15,2.86-4.66,4.38-.26.27-.41.49-.82.91-1.39,1.41-2.83,2.78-4.23,4.17-.22.89-.16,2.13,1.01,1.44.12-.07,1.86-1.73,1.96-1.86,1.74-2.2,4.63-4.66,6.89-6.91.4-.4.24-1,1.09-.73l.76,1.39-10.72,10.78c-.72.75-.61,1.44-.29,2.35l11.57-11.51c1.31.24,2.11.52,1.21,1.77-2.38,3.31-8.14,8.32-11.27,11.38-.59.58-.94.13-.74,1.47.08.51.45,1.56.99.78l11.97-12.18c.89-.53,1.39.18,1.76.89-1.8,2.19-3.99,4.01-5.98,6.01-.93.94-1.89,1.87-2.76,2.75-.57.58-4.02,3.91-4.25,4.34-.37.69-.26,1.12.24,1.71.36.32.53-.07.76-.26,4.38-3.48,8.32-8.98,12.65-12.69,2.36-.87,1.72,1.19.55,2.43-3.8,4.06-8.18,7.76-12.12,11.7-.57.7-.4,1.82.56,1.95l13.66-13.42.71-.1.79,1.72c-1.01-.13-1.12.73-1.59,1.17-2.94,2.77-5.71,5.56-8.43,8.29-.65.65-3.85,3.57-3.73,4.18.05.28.52.56.71.8l14.05-13.56c.79-.45,1.08.51,1.46,1.05l-13.26,13.49c-.87.73.69,1.58,1.22,1.34,3.43-3.64,7.04-7.08,10.59-10.61.58-.58,1.82-2.27,2.35-2.65.6-.44,1.05.01,1.65-.24l.24,1.49c-1.08.3-1.69,1.83-2.3,2.45-.05.05-.32-.13-.54.09-3.51,3.49-7.05,7.07-10.43,10.65.04.4,1.52.79,1.87.4l9.75-9.98c1.18-.25,2.12-2.84,3.5-2.59.08.01,1.13,1.06.8,1.27l-12.67,12.78,2,.38,12.15-12.18c.3-.01.97.38,1.16.62s.36.35.12.64l-11.68,12.04,1.76.38,11.08-11.36,1.92.48-.09.72-10.41,10.79c.54-.11,1.17.31,1.64.26.15-.01,2-1.73,2.27-2,.86-.87,1.81-1.93,2.58-2.68,1.75-1.7,3-3.41,4.88-5.03,1.2-1.03,1.3-1.01,2.43.06l-.28.67-9.27,9.22c2.16.95,4.17-1.63,5.68-3.1.92-.9,4.85-5.6,5.71-5.66.73-.05,1.78.3,1.63,1.2l-7.75,7.81c.72,0,1.78-.02,2.42-.34.33-.16,3.43-3.36,3.99-3.91s.36-.47.99-.99c1.24-1.04,1.32-2.41,3.62-2.02.24.55.16.85-.23,1.29-1.25,1.43-3.54,3.54-4.99,4.87-.34.31-.17.55.1.6,2.47.46,4.69-3.27,6.23-4.68.97-.89,1.39-1.03,2.6-.39.23.12.41-.07.31.43l-3.26,3.39c.89-.06,2.11-.34,2.9-.74,1.78-.91,1.78-3.21,4.38-2.02l-.13.75,2.51-.94c.38,0,2.08,2.47,2.5,2.95.6.69,2.58,1.84,1.91,2.65-.42.51-3.87,1.7-4.72,2.06-15.02,6.41-32.81,8.01-47.6-.44-.99-.57-2.59-2.03-3.4-2.39s-.04.41-1.1-.63c-2.8-2.74-5.66-5.18-7.71-8.6-7.05-11.75-6.22-26.57-1.82-39.3.26-.75,1.59-4.54,1.85-4.87s.68-.12,1.03-.16Z"/>
      <path class="st1" d="M228.74,455.13c-.15.55-1.42.23-1.77-.04v-3.85s-1.88.49-1.88.49l-.27,3.04c-1.24.5-1.88-.62-1.86-1.78l-1.85.74-3.66-4.39c-.1-.27.98-1.01,1.15-1.08,16.47-7.48,32.78-15.06,49.38-22.36l.37.12-1.26,1.06c-.23,1.78.68,4.41-.9,5.57-.29.21-.35.39-.85.28v-4.77c-.32.14-.85.32-.96.67-.37,1.1.17,3.83-.05,5.22-.12.72-.95,2.01-1.72,1.87-.69-2.02.2-4.03-.28-6l-.94.55.08,6.24c-.27.89-.76,2.09-1.9,1.99v-7.02c-.66-.17-1.17,1.18-1.23,1.64-.31,2.51.34,5.16-.29,7.62l-1.49.52v-7.53c-.47,0-1.01-.09-1.41.23-1.42,1.14,1.22,9.16-1.98,10.31-.37-.24-.35-.48-.39-.86-.28-2.56.2-5.31,0-7.91-.37.23-.93.38-1.24.63-.14.11-.3.2-.38.37-.59,1.22.17,6.96-.14,8.89-.14.92-.68,1.12-1.47,1.27-.29.06-.52-.14-.52-.26v-8.4c-.72-.04-1.6.36-1.75,1.13-.29,1.54.42,8.98-.31,9.61l-1.45.3c-.32-1.05,0-2.01,0-2.9,0-.42-.17-.8-.17-1.2,0-1.3.39-3,.16-4.3-.06-.32-.25-.73-.62-.63-.21,1.01-1.28.66-1.38.75-.35.32.44,8.23-.13,9.53-.24.54-1.02.91-1.61.74l-.02-8.51c-.56-.06-1.44.14-1.77.61-.77,1.08.17,7.47-.22,9.26l-1.77.42v-8.28c-.53-.05-1.52.09-1.71.67-.59,1.76.48,6.29-.09,8.19-.17.58-1.56,1.16-1.96.55v-7.02l-.6-.35c-.19.19-1.16.75-1.16.86v7.02c-.45.56-1.52.59-2.01,0v-5.64c-.96-.17-.83.08-1.28.59-.14.16-.48.14-.48.16v5.39Z"/>
      <path class="st1" d="M222.41,302.3c.05.02.68.82.69.9.12.78-1.89,3.95-2.36,4.96-.23.49-1.47,3.16-1.29,3.35.76.1,1.46-.34,2.17-.42.52-.06,1.24.49,1.72-.08.73-2.13,2.12-4.03,2.94-6.1.22-.55-.14-.28.38-1.06.03-.04-.2-.31-.18-.35.06-.08.65-.1.85-.24.33-.24-.15-1.25.9-.65l-.26.87c.33-.03,1.1.09.99.61l-3.49,6.92,3.65-.23,3.26-6.53c1.06-1.07,2.23-.08,1.87,1.31-.05.19-.57.34-.81.74s-2.13,4.29-1.95,4.45h1.59s.29-.5.29-.5c.08.7,1.13.68,1.64.38.47-.28,2.71-5.78,3.14-5.91.4-.17,1.37.85,1.37,1.12l-2.01,4.66h13.54c-2.16.55-4.39.71-6.59,1.06-10.24,1.64-20.35,3.19-30.68,4.93-.57.1-1.21-.07-1.73.03-.56.11-.73.63-1.05.71-.38.1-.94-.26-1.44-.22-1.63.1-3.87.74-5.56.99-4.75.69-9.81,1.23-14.5,2.03-.34.06-.55.29-.81.47l-.57-.37,2.3-6.82,1.84-.55.23.49c1.82-.83,2.05-4.16,3.46-5.08.65-.42,2.15-1.11,1.95.17l-.49.33-2.03,4.32,3.35-.29,2.92-5.36-.5-.37c1.17-.66,1.51-1.91,3.25-1.75.44,1.29-.03.82-.23,1.18-1.1,1.94-2.02,3.97-3.01,5.97,4.22.96,3.77-1.19,5.16-3.87.15-.29.48-.52.65-.85.86-1.64,1.38-4.35,3.71-3.68.23.32-1.97,4.08-2.31,4.84-.24.53-.69,1.28-.78,1.48-.22.54-.19,1.14-.17,1.7l2.59-.04c1.02-.67,1.09-2.03,1.5-2.89s1.43-2.39,1.86-3.27c.3-.6.6-1.86.83-2.19.2-.29,1.46-1.01,1.83-.9.33.09.44,1.01.36,1.33-.24,1-2.27,4.16-2.85,5.45-.23.53-1.07,2.01-.21,2.25.14.04,2.76-.2,2.93-.24s.17-.38.25-.41c.32-.14.73.03.95-.23.33-.4.45-1.48.64-1.85.86-1.62,1.65-3.48,2.5-4.99.4-.72.7-1.25,1.6-1.03l-.5-.75.7.07Z"/>
    </g>
  </g>
  <path class="st1" d="M364.87,177.12c158.2,0,286.44,85.22,286.44,190.33s-128.25,190.33-286.44,190.33S78.43,472.58,78.43,367.46s128.25-190.33,286.44-190.33M364.87,166.12c-78.65,0-152.75,20.45-208.63,57.59-27.59,18.34-49.32,39.79-64.58,63.76-16.08,25.26-24.23,52.17-24.23,79.99s8.15,54.73,24.23,79.99c15.26,23.97,36.99,45.42,64.58,63.76,55.89,37.13,129.98,57.59,208.63,57.59s152.75-20.45,208.63-57.59c27.59-18.34,49.32-39.79,64.58-63.76,16.08-25.26,24.23-52.17,24.23-79.99s-8.15-54.73-24.23-79.99c-15.26-23.97-36.99-45.42-64.58-63.76-55.89-37.13-129.98-57.59-208.63-57.59h0Z"/>
  <ellipse class="st0" cx="364.87" cy="367.46" rx="278.26" ry="181.77"/>
</svg>